# MagicaVoxel @ Ephtracy

# group
o 

# material
mtllib frog1.mtl
usemtl palette

# normals
vn -1 0 0
vn 1 0 0
vn 0 0 1
vn 0 0 -1
vn 0 -1 0
vn 0 1 0

# texcoords
vt 0.134766 0.5
vt 0.150391 0.5
vt 0.205078 0.5
vt 0.322266 0.5
vt 0.326172 0.5
vt 0.986328 0.5
vt 0.994141 0.5

# verts
v -1.7 2.4 -1.7
v -1.7 2.4 -2
v -1.7 2.6 -1.7
v -1.7 2.6 -2
v -0.5 0 -1.7
v -0.5 0 -2
v -0.5 0.1 -1.7
v -0.5 0.1 -2
v -0.5 1.1 -1.7
v -0.5 1.1 -2
v -0.5 1.7 -1.7
v -0.5 1.7 -2
v -0.5 2.4 -1.7
v -0.5 2.4 -2
v -0.5 2.7 -1.7
v -0.5 2.7 -2
v -0.5 3.5 -1.7
v -0.5 3.5 -2
v -0.3 2.6 -1.7
v -0.3 2.6 -2
v -0.3 2.7 -1.7
v -0.3 2.7 -2
v -0.0999999 0 -1.7
v -0.0999999 0 -2
v -0.0999999 0.1 -1.7
v -0.0999999 0.1 -2
v -0.0999999 1.1 -1.7
v -0.0999999 1.1 -2
v -0.0999999 1.5 -1.7
v -0.0999999 1.5 -2
v -0.0999999 3.2 -1.7
v -0.0999999 3.2 -2
v -0.0999999 3.5 -1.7
v -0.0999999 3.5 -2
v -0.2 0 -1.7
v -0.2 0 -2
v -0.2 0.1 -1.7
v -0.2 0.1 -2
v -0.2 1.1 -1.7
v -0.2 1.1 -2
v -0.2 1.5 -1.7
v -0.2 1.5 -2
v -0.2 3.2 -1.7
v -0.2 3.2 -2
v -0.2 3.5 -1.7
v -0.2 3.5 -2
v 1.19209e-07 2.6 -1.7
v 1.19209e-07 2.6 -2
v 1.19209e-07 2.7 -1.7
v 1.19209e-07 2.7 -2
v 0.2 0 -1.7
v 0.2 0 -2
v 0.2 0.1 -1.7
v 0.2 0.1 -2
v 0.2 1.1 -1.7
v 0.2 1.1 -2
v 0.2 1.7 -1.7
v 0.2 1.7 -2
v 0.2 2.4 -1.7
v 0.2 2.4 -2
v 0.2 2.7 -1.7
v 0.2 2.7 -2
v 0.2 3.5 -1.7
v 0.2 3.5 -2
v 1.4 2.4 -1.7
v 1.4 2.4 -2
v 1.4 2.6 -1.7
v 1.4 2.6 -2
v -1.7 2.4 -1.7
v -1.7 2.6 -1.7
v -1.6 2.4 -1.7
v -1.6 2.6 -1.7
v -0.8 2.4 -1.7
v -0.8 2.6 -1.7
v -0.5 0 -1.7
v -0.5 0.1 -1.7
v -0.5 1.1 -1.7
v -0.5 1.7 -1.7
v -0.5 2.4 -1.7
v -0.5 2.7 -1.7
v -0.5 3.5 -1.7
v -0.4 2.9 -1.7
v -0.4 3 -1.7
v -0.4 3.2 -1.7
v -0.4 3.4 -1.7
v -0.3 2.6 -1.7
v -0.3 2.7 -1.7
v -0.3 2.8 -1.7
v -0.3 2.9 -1.7
v -0.3 3 -1.7
v -0.3 3.1 -1.7
v -0.3 3.2 -1.7
v -0.3 3.4 -1.7
v -0.2 0 -1.7
v -0.2 0.1 -1.7
v -0.2 1.1 -1.7
v -0.2 1.5 -1.7
v -0.2 3 -1.7
v -0.2 3.1 -1.7
v -0.2 3.2 -1.7
v -0.2 3.5 -1.7
v -0.0999999 0 -1.7
v -0.0999999 0.1 -1.7
v -0.0999999 1.1 -1.7
v -0.0999999 1.5 -1.7
v -0.0999999 3 -1.7
v -0.0999999 3.1 -1.7
v -0.0999999 3.2 -1.7
v -0.0999999 3.5 -1.7
v 1.19209e-07 2.6 -1.7
v 1.19209e-07 2.7 -1.7
v 1.19209e-07 2.8 -1.7
v 1.19209e-07 2.9 -1.7
v 1.19209e-07 3 -1.7
v 1.19209e-07 3.1 -1.7
v 1.19209e-07 3.2 -1.7
v 1.19209e-07 3.4 -1.7
v 0.1 2.9 -1.7
v 0.1 3 -1.7
v 0.1 3.2 -1.7
v 0.1 3.4 -1.7
v 0.2 0 -1.7
v 0.2 0.1 -1.7
v 0.2 1.1 -1.7
v 0.2 1.7 -1.7
v 0.2 2.4 -1.7
v 0.2 2.7 -1.7
v 0.2 3.5 -1.7
v 0.5 2.4 -1.7
v 0.5 2.6 -1.7
v 1.3 2.4 -1.7
v 1.3 2.6 -1.7
v 1.4 2.4 -1.7
v 1.4 2.6 -1.7
v -1.7 2.4 -2
v -1.7 2.6 -2
v -1.6 2.4 -2
v -1.6 2.6 -2
v -0.8 2.4 -2
v -0.8 2.6 -2
v -0.5 0 -2
v -0.5 0.1 -2
v -0.5 1.1 -2
v -0.5 1.7 -2
v -0.5 2.4 -2
v -0.5 2.7 -2
v -0.5 3.5 -2
v -0.3 2.6 -2
v -0.3 2.7 -2
v -0.2 0 -2
v -0.2 0.1 -2
v -0.2 1.1 -2
v -0.2 1.5 -2
v -0.2 3.2 -2
v -0.2 3.5 -2
v -0.0999999 0 -2
v -0.0999999 0.1 -2
v -0.0999999 1.1 -2
v -0.0999999 1.5 -2
v -0.0999999 3.2 -2
v -0.0999999 3.5 -2
v 1.19209e-07 2.6 -2
v 1.19209e-07 2.7 -2
v 0.2 0 -2
v 0.2 0.1 -2
v 0.2 1.1 -2
v 0.2 1.7 -2
v 0.2 2.4 -2
v 0.2 2.7 -2
v 0.2 3.5 -2
v 0.5 2.4 -2
v 0.5 2.6 -2
v 1.3 2.4 -2
v 1.3 2.6 -2
v 1.4 2.4 -2
v 1.4 2.6 -2
v -0.5 0 -1.7
v -0.2 0 -1.7
v -0.0999999 0 -1.7
v 0.2 0 -1.7
v -0.5 0 -2
v -0.2 0 -2
v -0.0999999 0 -2
v 0.2 0 -2
v -0.2 1.5 -1.7
v -0.0999999 1.5 -1.7
v -0.2 1.5 -2
v -0.0999999 1.5 -2
v -1.7 2.4 -1.7
v -1.6 2.4 -1.7
v -0.8 2.4 -1.7
v -0.5 2.4 -1.7
v 0.2 2.4 -1.7
v 0.5 2.4 -1.7
v 1.3 2.4 -1.7
v 1.4 2.4 -1.7
v -1.7 2.4 -2
v -1.6 2.4 -2
v -0.8 2.4 -2
v -0.5 2.4 -2
v 0.2 2.4 -2
v 0.5 2.4 -2
v 1.3 2.4 -2
v 1.4 2.4 -2
v -0.5 2.7 -1.7
v -0.3 2.7 -1.7
v 1.19209e-07 2.7 -1.7
v 0.2 2.7 -1.7
v -0.5 2.7 -2
v -0.3 2.7 -2
v 1.19209e-07 2.7 -2
v 0.2 2.7 -2
v -1.7 2.6 -1.7
v -1.6 2.6 -1.7
v -0.8 2.6 -1.7
v -0.3 2.6 -1.7
v 1.19209e-07 2.6 -1.7
v 0.5 2.6 -1.7
v 1.3 2.6 -1.7
v 1.4 2.6 -1.7
v -1.7 2.6 -2
v -1.6 2.6 -2
v -0.8 2.6 -2
v -0.3 2.6 -2
v 1.19209e-07 2.6 -2
v 0.5 2.6 -2
v 1.3 2.6 -2
v 1.4 2.6 -2
v -0.2 3.2 -1.7
v -0.0999999 3.2 -1.7
v -0.2 3.2 -2
v -0.0999999 3.2 -2
v -0.5 3.5 -1.7
v -0.2 3.5 -1.7
v -0.0999999 3.5 -1.7
v 0.2 3.5 -1.7
v -0.5 3.5 -2
v -0.2 3.5 -2
v -0.0999999 3.5 -2
v 0.2 3.5 -2

# faces
f 3/4/1 2/4/1 1/4/1
f 4/4/1 2/4/1 3/4/1
f 7/4/1 6/4/1 5/4/1
f 8/4/1 6/4/1 7/4/1
f 9/5/1 8/5/1 7/5/1
f 10/5/1 8/5/1 9/5/1
f 11/3/1 10/3/1 9/3/1
f 12/3/1 10/3/1 11/3/1
f 13/2/1 12/2/1 11/2/1
f 14/2/1 12/2/1 13/2/1
f 17/5/1 16/5/1 15/5/1
f 18/5/1 16/5/1 17/5/1
f 21/5/1 20/5/1 19/5/1
f 22/5/1 20/5/1 21/5/1
f 25/4/1 24/4/1 23/4/1
f 26/4/1 24/4/1 25/4/1
f 27/5/1 26/5/1 25/5/1
f 28/5/1 26/5/1 27/5/1
f 29/3/1 28/3/1 27/3/1
f 30/3/1 28/3/1 29/3/1
f 33/5/1 32/5/1 31/5/1
f 34/5/1 32/5/1 33/5/1
f 35/4/2 36/4/2 37/4/2
f 37/4/2 36/4/2 38/4/2
f 37/5/2 38/5/2 39/5/2
f 39/5/2 38/5/2 40/5/2
f 39/3/2 40/3/2 41/3/2
f 41/3/2 40/3/2 42/3/2
f 43/5/2 44/5/2 45/5/2
f 45/5/2 44/5/2 46/5/2
f 47/5/2 48/5/2 49/5/2
f 49/5/2 48/5/2 50/5/2
f 51/4/2 52/4/2 53/4/2
f 53/4/2 52/4/2 54/4/2
f 53/5/2 54/5/2 55/5/2
f 55/5/2 54/5/2 56/5/2
f 55/3/2 56/3/2 57/3/2
f 57/3/2 56/3/2 58/3/2
f 57/2/2 58/2/2 59/2/2
f 59/2/2 58/2/2 60/2/2
f 61/5/2 62/5/2 63/5/2
f 63/5/2 62/5/2 64/5/2
f 65/4/2 66/4/2 67/4/2
f 67/4/2 66/4/2 68/4/2
f 71/4/3 70/4/3 69/4/3
f 72/4/3 70/4/3 71/4/3
f 73/5/3 72/5/3 71/5/3
f 74/5/3 72/5/3 73/5/3
f 79/2/3 74/2/3 73/2/3
f 82/5/3 81/5/3 80/5/3
f 83/5/3 81/5/3 82/5/3
f 84/5/3 81/5/3 83/5/3
f 85/5/3 81/5/3 84/5/3
f 86/2/3 79/2/3 78/2/3
f 86/2/3 74/2/3 79/2/3
f 87/5/3 82/5/3 80/5/3
f 88/5/3 82/5/3 87/5/3
f 89/1/3 83/1/3 82/1/3
f 89/5/3 82/5/3 88/5/3
f 90/5/3 84/5/3 83/5/3
f 90/1/3 83/1/3 89/1/3
f 91/5/3 84/5/3 90/5/3
f 92/7/3 85/7/3 84/7/3
f 92/5/3 84/5/3 91/5/3
f 93/5/3 81/5/3 85/5/3
f 93/7/3 85/7/3 92/7/3
f 94/4/3 76/4/3 75/4/3
f 95/5/3 77/5/3 76/5/3
f 95/4/3 76/4/3 94/4/3
f 96/3/3 78/3/3 77/3/3
f 96/5/3 77/5/3 95/5/3
f 97/3/3 78/3/3 96/3/3
f 98/6/3 91/6/3 90/6/3
f 98/5/3 90/5/3 89/5/3
f 99/5/3 92/5/3 91/5/3
f 99/6/3 91/6/3 98/6/3
f 99/5/3 93/5/3 92/5/3
f 100/5/3 93/5/3 99/5/3
f 101/5/3 81/5/3 93/5/3
f 101/5/3 93/5/3 100/5/3
f 105/3/3 78/3/3 97/3/3
f 106/5/3 98/5/3 89/5/3
f 106/5/3 100/5/3 99/5/3
f 106/5/3 99/5/3 98/5/3
f 107/5/3 100/5/3 106/5/3
f 108/5/3 100/5/3 107/5/3
f 110/2/3 86/2/3 78/2/3
f 110/5/3 88/5/3 87/5/3
f 110/5/3 87/5/3 86/5/3
f 111/5/3 88/5/3 110/5/3
f 112/1/3 89/1/3 88/1/3
f 112/5/3 88/5/3 111/5/3
f 113/5/3 106/5/3 89/5/3
f 113/1/3 89/1/3 112/1/3
f 114/6/3 107/6/3 106/6/3
f 114/5/3 106/5/3 113/5/3
f 115/5/3 109/5/3 108/5/3
f 115/6/3 107/6/3 114/6/3
f 115/5/3 108/5/3 107/5/3
f 116/5/3 109/5/3 115/5/3
f 117/5/3 109/5/3 116/5/3
f 118/1/3 114/1/3 113/1/3
f 118/5/3 113/5/3 112/5/3
f 118/5/3 112/5/3 111/5/3
f 119/5/3 116/5/3 115/5/3
f 119/1/3 114/1/3 118/1/3
f 119/5/3 115/5/3 114/5/3
f 120/7/3 117/7/3 116/7/3
f 120/5/3 116/5/3 119/5/3
f 121/5/3 109/5/3 117/5/3
f 121/7/3 117/7/3 120/7/3
f 122/4/3 103/4/3 102/4/3
f 123/5/3 104/5/3 103/5/3
f 123/4/3 103/4/3 122/4/3
f 124/3/3 105/3/3 104/3/3
f 124/5/3 104/5/3 123/5/3
f 125/3/3 78/3/3 105/3/3
f 125/3/3 105/3/3 124/3/3
f 125/2/3 110/2/3 78/2/3
f 126/2/3 110/2/3 125/2/3
f 127/5/3 120/5/3 119/5/3
f 127/5/3 121/5/3 120/5/3
f 127/5/3 119/5/3 118/5/3
f 127/5/3 118/5/3 111/5/3
f 128/5/3 109/5/3 121/5/3
f 128/5/3 121/5/3 127/5/3
f 129/2/3 110/2/3 126/2/3
f 130/2/3 110/2/3 129/2/3
f 131/5/3 130/5/3 129/5/3
f 132/5/3 130/5/3 131/5/3
f 133/4/3 132/4/3 131/4/3
f 134/4/3 132/4/3 133/4/3
f 135/4/4 136/4/4 137/4/4
f 137/4/4 136/4/4 138/4/4
f 137/5/4 138/5/4 139/5/4
f 139/5/4 138/5/4 140/5/4
f 139/2/4 140/2/4 145/2/4
f 144/2/4 145/2/4 148/2/4
f 145/2/4 140/2/4 148/2/4
f 146/5/4 147/5/4 149/5/4
f 141/4/4 142/4/4 150/4/4
f 142/5/4 143/5/4 151/5/4
f 150/4/4 142/4/4 151/4/4
f 143/3/4 144/3/4 152/3/4
f 151/5/4 143/5/4 152/5/4
f 152/3/4 144/3/4 153/3/4
f 148/5/4 149/5/4 154/5/4
f 149/5/4 147/5/4 154/5/4
f 154/5/4 147/5/4 155/5/4
f 153/3/4 144/3/4 159/3/4
f 148/5/4 154/5/4 160/5/4
f 144/2/4 148/2/4 162/2/4
f 160/5/4 161/5/4 162/5/4
f 148/5/4 160/5/4 162/5/4
f 162/5/4 161/5/4 163/5/4
f 156/4/4 157/4/4 164/4/4
f 157/5/4 158/5/4 165/5/4
f 164/4/4 157/4/4 165/4/4
f 158/3/4 159/3/4 166/3/4
f 165/5/4 158/5/4 166/5/4
f 159/3/4 144/3/4 167/3/4
f 166/3/4 159/3/4 167/3/4
f 144/2/4 162/2/4 167/2/4
f 167/2/4 162/2/4 168/2/4
f 163/5/4 161/5/4 169/5/4
f 169/5/4 161/5/4 170/5/4
f 168/2/4 162/2/4 171/2/4
f 171/2/4 162/2/4 172/2/4
f 171/5/4 172/5/4 173/5/4
f 173/5/4 172/5/4 174/5/4
f 173/4/4 174/4/4 175/4/4
f 175/4/4 174/4/4 176/4/4
f 181/4/5 178/4/5 177/4/5
f 182/4/5 178/4/5 181/4/5
f 183/4/5 180/4/5 179/4/5
f 184/4/5 180/4/5 183/4/5
f 187/3/5 186/3/5 185/3/5
f 188/3/5 186/3/5 187/3/5
f 197/4/5 190/4/5 189/4/5
f 198/5/5 191/5/5 190/5/5
f 198/4/5 190/4/5 197/4/5
f 199/2/5 192/2/5 191/2/5
f 199/5/5 191/5/5 198/5/5
f 200/2/5 192/2/5 199/2/5
f 201/2/5 194/2/5 193/2/5
f 202/5/5 195/5/5 194/5/5
f 202/2/5 194/2/5 201/2/5
f 203/4/5 196/4/5 195/4/5
f 203/5/5 195/5/5 202/5/5
f 204/4/5 196/4/5 203/4/5
f 209/5/5 206/5/5 205/5/5
f 210/5/5 206/5/5 209/5/5
f 211/5/5 208/5/5 207/5/5
f 212/5/5 208/5/5 211/5/5
f 213/4/6 214/4/6 221/4/6
f 214/5/6 215/5/6 222/5/6
f 221/4/6 214/4/6 222/4/6
f 215/2/6 216/2/6 223/2/6
f 222/5/6 215/5/6 223/5/6
f 223/2/6 216/2/6 224/2/6
f 217/2/6 218/2/6 225/2/6
f 218/5/6 219/5/6 226/5/6
f 225/2/6 218/2/6 226/2/6
f 219/4/6 220/4/6 227/4/6
f 226/5/6 219/5/6 227/5/6
f 227/4/6 220/4/6 228/4/6
f 229/5/6 230/5/6 231/5/6
f 231/5/6 230/5/6 232/5/6
f 233/5/6 234/5/6 237/5/6
f 237/5/6 234/5/6 238/5/6
f 235/5/6 236/5/6 239/5/6
f 239/5/6 236/5/6 240/5/6
