# MagicaVoxel @ Ephtracy

# group
o 

# material
mtllib cubby.mtl
usemtl palette

# normals
vn -1 0 0
vn 1 0 0
vn 0 0 1
vn 0 0 -1
vn 0 -1 0
vn 0 1 0

# texcoords
vt 0.0527344 0.5
vt 0.0722656 0.5
vt 0.134766 0.5
vt 0.681641 0.5
vt 0.958984 0.5
vt 0.986328 0.5
vt 0.994141 0.5

# verts
v -1.5 1.9 0.7
v -1.5 1.9 -0.7
v -1.5 3.3 0.7
v -1.5 3.3 -0.7
v -1.4 1.7 0.9
v -1.4 1.7 -0.9
v -1.4 1.9 0.7
v -1.4 1.9 -0.7
v -1.4 3.3 0.7
v -1.4 3.3 -0.7
v -1.4 3.5 0.9
v -1.4 3.5 -0.9
v -1.3 1.5 1.1
v -1.3 1.5 -1.1
v -1.3 1.7 0.9
v -1.3 1.7 -0.9
v -1.3 3.5 0.9
v -1.3 3.5 -0.9
v -1.3 3.7 1.1
v -1.3 3.7 -1.1
v -1.2 1.4 1.3
v -1.2 1.4 -1.3
v -1.2 1.5 1.1
v -1.2 1.5 -1.1
v -1.2 3.7 1.1
v -1.2 3.7 -1.1
v -1.2 3.8 1.3
v -1.2 3.8 -1.3
v -1.1 1.3 1.3
v -1.1 1.3 -1.3
v -1.1 1.4 1.3
v -1.1 1.4 -1.3
v -1.1 3.8 1.3
v -1.1 3.8 -1.3
v -1.1 3.9 1.3
v -1.1 3.9 -1.3
v -1 1.2 1.7
v -1 1.2 0.1
v -1 1.3 1.7
v -1 1.3 1.3
v -1 1.3 0.1
v -1 1.6 -1.3
v -1 1.6 -1.4
v -1 3.7 -1.3
v -1 3.7 -1.4
v -1 3.9 1.1
v -1 3.9 -1.1
v -1 4 1.1
v -1 4 -1.1
v -0.9 1.2 1.8
v -0.9 1.2 1.7
v -0.9 1.3 1.8
v -0.9 1.3 1.7
v -0.8 1.2 1.9
v -0.8 1.2 1.8
v -0.8 1.3 1.9
v -0.8 1.3 1.8
v -0.8 1.9 -1.4
v -0.8 1.9 -1.5
v -0.8 3.5 -1.4
v -0.8 3.5 -1.5
v -0.6 2.1 -1.5
v -0.6 2.1 -1.6
v -0.6 3.3 -1.5
v -0.6 3.3 -1.6
v 0.3 1.2 1.7
v 0.3 1.2 0.1
v 0.3 1.3 1.7
v 0.3 1.3 1.3
v 0.3 1.3 0.1
v 0.4 1.2 1.8
v 0.4 1.2 1.7
v 0.4 1.3 1.8
v 0.4 1.3 1.7
v 0.5 1.2 1.9
v 0.5 1.2 1.8
v 0.5 1.3 1.9
v 0.5 1.3 1.8
v -0.4 1.2 1.9
v -0.4 1.2 1.8
v -0.4 1.3 1.9
v -0.4 1.3 1.8
v -0.3 1.2 1.8
v -0.3 1.2 1.7
v -0.3 1.3 1.8
v -0.3 1.3 1.7
v -0.2 1.2 1.7
v -0.2 1.2 0.1
v -0.2 1.3 1.7
v -0.2 1.3 1.3
v -0.2 1.3 0.1
v 0.7 2.1 -1.5
v 0.7 2.1 -1.6
v 0.7 3.3 -1.5
v 0.7 3.3 -1.6
v 0.9 1.2 1.9
v 0.9 1.2 1.8
v 0.9 1.3 1.9
v 0.9 1.3 1.8
v 0.9 1.9 -1.4
v 0.9 1.9 -1.5
v 0.9 3.5 -1.4
v 0.9 3.5 -1.5
v 1 1.2 1.8
v 1 1.2 1.7
v 1 1.3 1.8
v 1 1.3 1.7
v 1.1 1.2 1.7
v 1.1 1.2 0.1
v 1.1 1.3 1.7
v 1.1 1.3 1.3
v 1.1 1.3 0.1
v 1.1 1.6 -1.3
v 1.1 1.6 -1.4
v 1.1 3.7 -1.3
v 1.1 3.7 -1.4
v 1.1 3.9 1.1
v 1.1 3.9 -1.1
v 1.1 4 1.1
v 1.1 4 -1.1
v 1.2 1.3 1.3
v 1.2 1.3 -1.3
v 1.2 1.4 1.3
v 1.2 1.4 -1.3
v 1.2 3.8 1.3
v 1.2 3.8 -1.3
v 1.2 3.9 1.3
v 1.2 3.9 -1.3
v 1.3 1.4 1.3
v 1.3 1.4 -1.3
v 1.3 1.6 1.1
v 1.3 1.6 -1.1
v 1.3 3.7 1.1
v 1.3 3.7 -1.1
v 1.3 3.8 1.3
v 1.3 3.8 -1.3
v 1.4 1.6 1.1
v 1.4 1.6 -1.1
v 1.4 1.9 0.9
v 1.4 1.9 -0.9
v 1.4 3.5 0.9
v 1.4 3.5 -0.9
v 1.4 3.7 1.1
v 1.4 3.7 -1.1
v 1.5 1.9 0.9
v 1.5 1.9 -0.9
v 1.5 2.1 0.7
v 1.5 2.1 -0.7
v 1.5 3.3 0.7
v 1.5 3.3 -0.7
v 1.5 3.5 0.9
v 1.5 3.5 -0.9
v 1.6 2.1 0.7
v 1.6 2.1 -0.7
v 1.6 3.3 0.7
v 1.6 3.3 -0.7
v -0.8 1.2 1.9
v -0.8 1.3 1.9
v -0.4 1.2 1.9
v -0.4 1.3 1.9
v 0.5 1.2 1.9
v 0.5 1.3 1.9
v 0.9 1.2 1.9
v 0.9 1.3 1.9
v -0.9 1.2 1.8
v -0.9 1.3 1.8
v -0.8 1.2 1.8
v -0.8 1.3 1.8
v -0.4 1.2 1.8
v -0.4 1.3 1.8
v -0.3 1.2 1.8
v -0.3 1.3 1.8
v 0.4 1.2 1.8
v 0.4 1.3 1.8
v 0.5 1.2 1.8
v 0.5 1.3 1.8
v 0.9 1.2 1.8
v 0.9 1.3 1.8
v 1 1.2 1.8
v 1 1.3 1.8
v -1 1.2 1.7
v -1 1.3 1.7
v -0.9 1.2 1.7
v -0.9 1.3 1.7
v -0.3 1.2 1.7
v -0.3 1.3 1.7
v -0.2 1.2 1.7
v -0.2 1.3 1.7
v 0.3 1.2 1.7
v 0.3 1.3 1.7
v 0.4 1.2 1.7
v 0.4 1.3 1.7
v 1 1.2 1.7
v 1 1.3 1.7
v 1.1 1.2 1.7
v 1.1 1.3 1.7
v -1.2 1.4 1.3
v -1.2 3.8 1.3
v -1.1 1.3 1.3
v -1.1 1.4 1.3
v -1.1 2.5 1.3
v -1.1 2.8 1.3
v -1.1 3.8 1.3
v -1.1 3.9 1.3
v -1 1.3 1.3
v -0.7 2.9 1.3
v -0.7 3.1 1.3
v -0.7 3.6 1.3
v -0.6 3.3 1.3
v -0.6 3.5 1.3
v -0.5 2.5 1.3
v -0.5 2.8 1.3
v -0.5 3.3 1.3
v -0.5 3.5 1.3
v -0.4 2.9 1.3
v -0.4 3.1 1.3
v -0.4 3.6 1.3
v -0.2 1.3 1.3
v -0.2 2.4 1.3
v -0.2 2.5 1.3
v -0.1 2.3 1.3
v -0.1 2.4 1.3
v -0.1 2.5 1.3
v 0.2 2.3 1.3
v 0.2 2.4 1.3
v 0.2 2.5 1.3
v 0.3 1.3 1.3
v 0.3 2.4 1.3
v 0.3 2.5 1.3
v 0.5 2.9 1.3
v 0.5 3.1 1.3
v 0.5 3.6 1.3
v 0.6 2.5 1.3
v 0.6 2.8 1.3
v 0.6 3.3 1.3
v 0.6 3.5 1.3
v 0.7 3.3 1.3
v 0.7 3.5 1.3
v 0.8 2.9 1.3
v 0.8 3.1 1.3
v 0.8 3.6 1.3
v 1.1 1.3 1.3
v 1.2 1.3 1.3
v 1.2 1.4 1.3
v 1.2 2.5 1.3
v 1.2 2.8 1.3
v 1.2 3.8 1.3
v 1.2 3.9 1.3
v 1.3 1.4 1.3
v 1.3 3.8 1.3
v -1.3 1.5 1.1
v -1.3 3.7 1.1
v -1.2 1.5 1.1
v -1.2 3.7 1.1
v -1 3.9 1.1
v -1 4 1.1
v 1.1 3.9 1.1
v 1.1 4 1.1
v 1.3 1.6 1.1
v 1.3 3.7 1.1
v 1.4 1.6 1.1
v 1.4 3.7 1.1
v -1.4 1.7 0.9
v -1.4 3.5 0.9
v -1.3 1.7 0.9
v -1.3 3.5 0.9
v 1.4 1.9 0.9
v 1.4 3.5 0.9
v 1.5 1.9 0.9
v 1.5 3.5 0.9
v -1.5 1.9 0.7
v -1.5 3.3 0.7
v -1.4 1.9 0.7
v -1.4 3.3 0.7
v 1.5 2.1 0.7
v 1.5 3.3 0.7
v 1.6 2.1 0.7
v 1.6 3.3 0.7
v -1 1.2 0.1
v -1 1.3 0.1
v -0.2 1.2 0.1
v -0.2 1.3 0.1
v 0.3 1.2 0.1
v 0.3 1.3 0.1
v 1.1 1.2 0.1
v 1.1 1.3 0.1
v -1.5 1.9 -0.7
v -1.5 3.3 -0.7
v -1.4 1.9 -0.7
v -1.4 3.3 -0.7
v 1.5 2.1 -0.7
v 1.5 3.3 -0.7
v 1.6 2.1 -0.7
v 1.6 3.3 -0.7
v -1.4 1.7 -0.9
v -1.4 3.5 -0.9
v -1.3 1.7 -0.9
v -1.3 3.5 -0.9
v 1.4 1.9 -0.9
v 1.4 3.5 -0.9
v 1.5 1.9 -0.9
v 1.5 3.5 -0.9
v -1.3 1.5 -1.1
v -1.3 3.7 -1.1
v -1.2 1.5 -1.1
v -1.2 3.7 -1.1
v -1 3.9 -1.1
v -1 4 -1.1
v 1.1 3.9 -1.1
v 1.1 4 -1.1
v 1.3 1.6 -1.1
v 1.3 3.7 -1.1
v 1.4 1.6 -1.1
v 1.4 3.7 -1.1
v -1.2 1.4 -1.3
v -1.2 3.8 -1.3
v -1.1 1.3 -1.3
v -1.1 1.4 -1.3
v -1.1 3.8 -1.3
v -1.1 3.9 -1.3
v -1 1.6 -1.3
v -1 3.7 -1.3
v 1.1 1.6 -1.3
v 1.1 3.7 -1.3
v 1.2 1.3 -1.3
v 1.2 1.4 -1.3
v 1.2 3.8 -1.3
v 1.2 3.9 -1.3
v 1.3 1.4 -1.3
v 1.3 3.8 -1.3
v -1 1.6 -1.4
v -1 3.7 -1.4
v -0.8 1.9 -1.4
v -0.8 3.5 -1.4
v 0.9 1.9 -1.4
v 0.9 3.5 -1.4
v 1.1 1.6 -1.4
v 1.1 3.7 -1.4
v -0.8 1.9 -1.5
v -0.8 3.5 -1.5
v -0.6 2.1 -1.5
v -0.6 3.3 -1.5
v 0.7 2.1 -1.5
v 0.7 3.3 -1.5
v 0.9 1.9 -1.5
v 0.9 3.5 -1.5
v -0.6 2.1 -1.6
v -0.6 3.3 -1.6
v 0.7 2.1 -1.6
v 0.7 3.3 -1.6
v -0.8 1.2 1.9
v -0.4 1.2 1.9
v 0.5 1.2 1.9
v 0.9 1.2 1.9
v -0.9 1.2 1.8
v -0.8 1.2 1.8
v -0.4 1.2 1.8
v -0.3 1.2 1.8
v 0.4 1.2 1.8
v 0.5 1.2 1.8
v 0.9 1.2 1.8
v 1 1.2 1.8
v -1 1.2 1.7
v -0.9 1.2 1.7
v -0.3 1.2 1.7
v -0.2 1.2 1.7
v 0.3 1.2 1.7
v 0.4 1.2 1.7
v 1 1.2 1.7
v 1.1 1.2 1.7
v -1 1.2 0.1
v -0.2 1.2 0.1
v 0.3 1.2 0.1
v 1.1 1.2 0.1
v -1.1 1.3 1.3
v -1 1.3 1.3
v -0.2 1.3 1.3
v 0.3 1.3 1.3
v 1.1 1.3 1.3
v 1.2 1.3 1.3
v -1 1.3 0.1
v -0.2 1.3 0.1
v 0.3 1.3 0.1
v 1.1 1.3 0.1
v -1.1 1.3 -1.3
v 1.2 1.3 -1.3
v -1.2 1.4 1.3
v -1.1 1.4 1.3
v 1.2 1.4 1.3
v 1.3 1.4 1.3
v -1.2 1.4 -1.3
v -1.1 1.4 -1.3
v 1.2 1.4 -1.3
v 1.3 1.4 -1.3
v -1.3 1.5 1.1
v -1.2 1.5 1.1
v -1.3 1.5 -1.1
v -1.2 1.5 -1.1
v 1.3 1.6 1.1
v 1.4 1.6 1.1
v 1.3 1.6 -1.1
v 1.4 1.6 -1.1
v -1 1.6 -1.3
v 1.1 1.6 -1.3
v -1 1.6 -1.4
v 1.1 1.6 -1.4
v -1.4 1.7 0.9
v -1.3 1.7 0.9
v -1.4 1.7 -0.9
v -1.3 1.7 -0.9
v 1.4 1.9 0.9
v 1.5 1.9 0.9
v -1.5 1.9 0.7
v -1.4 1.9 0.7
v -1.5 1.9 -0.7
v -1.4 1.9 -0.7
v 1.4 1.9 -0.9
v 1.5 1.9 -0.9
v -0.8 1.9 -1.4
v 0.9 1.9 -1.4
v -0.8 1.9 -1.5
v 0.9 1.9 -1.5
v 1.5 2.1 0.7
v 1.6 2.1 0.7
v 1.5 2.1 -0.7
v 1.6 2.1 -0.7
v -0.6 2.1 -1.5
v 0.7 2.1 -1.5
v -0.6 2.1 -1.6
v 0.7 2.1 -1.6
v -0.8 1.3 1.9
v -0.4 1.3 1.9
v 0.5 1.3 1.9
v 0.9 1.3 1.9
v -0.9 1.3 1.8
v -0.8 1.3 1.8
v -0.4 1.3 1.8
v -0.3 1.3 1.8
v 0.4 1.3 1.8
v 0.5 1.3 1.8
v 0.9 1.3 1.8
v 1 1.3 1.8
v -1 1.3 1.7
v -0.9 1.3 1.7
v -0.3 1.3 1.7
v -0.2 1.3 1.7
v 0.3 1.3 1.7
v 0.4 1.3 1.7
v 1 1.3 1.7
v 1.1 1.3 1.7
v -1 1.3 1.3
v -0.2 1.3 1.3
v 0.3 1.3 1.3
v 1.1 1.3 1.3
v -1.5 3.3 0.7
v -1.4 3.3 0.7
v 1.5 3.3 0.7
v 1.6 3.3 0.7
v -1.5 3.3 -0.7
v -1.4 3.3 -0.7
v 1.5 3.3 -0.7
v 1.6 3.3 -0.7
v -0.6 3.3 -1.5
v 0.7 3.3 -1.5
v -0.6 3.3 -1.6
v 0.7 3.3 -1.6
v -1.4 3.5 0.9
v -1.3 3.5 0.9
v 1.4 3.5 0.9
v 1.5 3.5 0.9
v -1.4 3.5 -0.9
v -1.3 3.5 -0.9
v 1.4 3.5 -0.9
v 1.5 3.5 -0.9
v -0.8 3.5 -1.4
v 0.9 3.5 -1.4
v -0.8 3.5 -1.5
v 0.9 3.5 -1.5
v -1.3 3.7 1.1
v -1.2 3.7 1.1
v 1.3 3.7 1.1
v 1.4 3.7 1.1
v -1.3 3.7 -1.1
v -1.2 3.7 -1.1
v 1.3 3.7 -1.1
v 1.4 3.7 -1.1
v -1 3.7 -1.3
v 1.1 3.7 -1.3
v -1 3.7 -1.4
v 1.1 3.7 -1.4
v -1.2 3.8 1.3
v -1.1 3.8 1.3
v 1.2 3.8 1.3
v 1.3 3.8 1.3
v -1.2 3.8 -1.3
v -1.1 3.8 -1.3
v 1.2 3.8 -1.3
v 1.3 3.8 -1.3
v -1.1 3.9 1.3
v 1.2 3.9 1.3
v -1 3.9 1.1
v 1.1 3.9 1.1
v -1 3.9 -1.1
v 1.1 3.9 -1.1
v -1.1 3.9 -1.3
v 1.2 3.9 -1.3
v -1 4 1.1
v 1.1 4 1.1
v -1 4 -1.1
v 1.1 4 -1.1

# faces
f 3/1/1 2/1/1 1/1/1
f 4/1/1 2/1/1 3/1/1
f 7/1/1 6/1/1 5/1/1
f 8/1/1 6/1/1 7/1/1
f 9/1/1 7/1/1 5/1/1
f 10/1/1 6/1/1 8/1/1
f 11/1/1 9/1/1 5/1/1
f 11/1/1 10/1/1 9/1/1
f 12/1/1 6/1/1 10/1/1
f 12/1/1 10/1/1 11/1/1
f 15/1/1 14/1/1 13/1/1
f 16/1/1 14/1/1 15/1/1
f 17/1/1 15/1/1 13/1/1
f 18/1/1 14/1/1 16/1/1
f 19/1/1 17/1/1 13/1/1
f 19/1/1 18/1/1 17/1/1
f 20/1/1 14/1/1 18/1/1
f 20/1/1 18/1/1 19/1/1
f 23/1/1 22/1/1 21/1/1
f 24/1/1 22/1/1 23/1/1
f 25/1/1 23/1/1 21/1/1
f 26/1/1 22/1/1 24/1/1
f 27/1/1 25/1/1 21/1/1
f 27/1/1 26/1/1 25/1/1
f 28/1/1 22/1/1 26/1/1
f 28/1/1 26/1/1 27/1/1
f 31/1/1 30/1/1 29/1/1
f 32/1/1 30/1/1 31/1/1
f 35/1/1 34/1/1 33/1/1
f 36/1/1 34/1/1 35/1/1
f 39/3/1 38/3/1 37/3/1
f 40/3/1 38/3/1 39/3/1
f 41/3/1 38/3/1 40/3/1
f 44/1/1 43/1/1 42/1/1
f 45/1/1 43/1/1 44/1/1
f 48/1/1 47/1/1 46/1/1
f 49/1/1 47/1/1 48/1/1
f 52/3/1 51/3/1 50/3/1
f 53/3/1 51/3/1 52/3/1
f 56/3/1 55/3/1 54/3/1
f 57/3/1 55/3/1 56/3/1
f 60/1/1 59/1/1 58/1/1
f 61/1/1 59/1/1 60/1/1
f 64/1/1 63/1/1 62/1/1
f 65/1/1 63/1/1 64/1/1
f 68/3/1 67/3/1 66/3/1
f 69/3/1 67/3/1 68/3/1
f 70/3/1 67/3/1 69/3/1
f 73/3/1 72/3/1 71/3/1
f 74/3/1 72/3/1 73/3/1
f 77/3/1 76/3/1 75/3/1
f 78/3/1 76/3/1 77/3/1
f 79/3/2 80/3/2 81/3/2
f 81/3/2 80/3/2 82/3/2
f 83/3/2 84/3/2 85/3/2
f 85/3/2 84/3/2 86/3/2
f 87/3/2 88/3/2 89/3/2
f 89/3/2 88/3/2 90/3/2
f 90/3/2 88/3/2 91/3/2
f 92/1/2 93/1/2 94/1/2
f 94/1/2 93/1/2 95/1/2
f 96/3/2 97/3/2 98/3/2
f 98/3/2 97/3/2 99/3/2
f 100/1/2 101/1/2 102/1/2
f 102/1/2 101/1/2 103/1/2
f 104/3/2 105/3/2 106/3/2
f 106/3/2 105/3/2 107/3/2
f 108/3/2 109/3/2 110/3/2
f 110/3/2 109/3/2 111/3/2
f 111/3/2 109/3/2 112/3/2
f 113/1/2 114/1/2 115/1/2
f 115/1/2 114/1/2 116/1/2
f 117/1/2 118/1/2 119/1/2
f 119/1/2 118/1/2 120/1/2
f 121/1/2 122/1/2 123/1/2
f 123/1/2 122/1/2 124/1/2
f 125/1/2 126/1/2 127/1/2
f 127/1/2 126/1/2 128/1/2
f 129/1/2 130/1/2 131/1/2
f 131/1/2 130/1/2 132/1/2
f 129/1/2 131/1/2 133/1/2
f 132/1/2 130/1/2 134/1/2
f 129/1/2 133/1/2 135/1/2
f 133/1/2 134/1/2 135/1/2
f 134/1/2 130/1/2 136/1/2
f 135/1/2 134/1/2 136/1/2
f 137/1/2 138/1/2 139/1/2
f 139/1/2 138/1/2 140/1/2
f 137/1/2 139/1/2 141/1/2
f 140/1/2 138/1/2 142/1/2
f 137/1/2 141/1/2 143/1/2
f 141/1/2 142/1/2 143/1/2
f 142/1/2 138/1/2 144/1/2
f 143/1/2 142/1/2 144/1/2
f 145/1/2 146/1/2 147/1/2
f 147/1/2 146/1/2 148/1/2
f 145/1/2 147/1/2 149/1/2
f 148/1/2 146/1/2 150/1/2
f 145/1/2 149/1/2 151/1/2
f 149/1/2 150/1/2 151/1/2
f 150/1/2 146/1/2 152/1/2
f 151/1/2 150/1/2 152/1/2
f 153/1/2 154/1/2 155/1/2
f 155/1/2 154/1/2 156/1/2
f 159/3/3 158/3/3 157/3/3
f 160/3/3 158/3/3 159/3/3
f 163/3/3 162/3/3 161/3/3
f 164/3/3 162/3/3 163/3/3
f 167/3/3 166/3/3 165/3/3
f 168/3/3 166/3/3 167/3/3
f 171/3/3 170/3/3 169/3/3
f 172/3/3 170/3/3 171/3/3
f 175/3/3 174/3/3 173/3/3
f 176/3/3 174/3/3 175/3/3
f 179/3/3 178/3/3 177/3/3
f 180/3/3 178/3/3 179/3/3
f 183/3/3 182/3/3 181/3/3
f 184/3/3 182/3/3 183/3/3
f 187/3/3 186/3/3 185/3/3
f 188/3/3 186/3/3 187/3/3
f 191/3/3 190/3/3 189/3/3
f 192/3/3 190/3/3 191/3/3
f 195/3/3 194/3/3 193/3/3
f 196/3/3 194/3/3 195/3/3
f 200/1/3 198/1/3 197/1/3
f 201/1/3 198/1/3 200/1/3
f 202/1/3 198/1/3 201/1/3
f 203/1/3 198/1/3 202/1/3
f 205/1/3 200/1/3 199/1/3
f 205/1/3 201/1/3 200/1/3
f 206/1/3 204/1/3 203/1/3
f 206/1/3 203/1/3 202/1/3
f 207/1/3 204/1/3 206/1/3
f 208/1/3 204/1/3 207/1/3
f 209/7/3 208/7/3 207/7/3
f 210/7/3 208/7/3 209/7/3
f 211/1/3 201/1/3 205/1/3
f 211/2/3 202/2/3 201/2/3
f 212/1/3 206/1/3 202/1/3
f 212/2/3 202/2/3 211/2/3
f 213/5/3 210/5/3 209/5/3
f 213/7/3 209/7/3 207/7/3
f 214/7/3 208/7/3 210/7/3
f 214/5/3 210/5/3 213/5/3
f 215/1/3 206/1/3 212/1/3
f 215/4/3 207/4/3 206/4/3
f 215/1/3 212/1/3 211/1/3
f 216/7/3 213/7/3 207/7/3
f 216/4/3 207/4/3 215/4/3
f 216/7/3 214/7/3 213/7/3
f 217/7/3 208/7/3 214/7/3
f 217/7/3 214/7/3 216/7/3
f 217/1/3 204/1/3 208/1/3
f 218/1/3 215/1/3 211/1/3
f 218/1/3 216/1/3 215/1/3
f 218/1/3 217/1/3 216/1/3
f 218/1/3 211/1/3 205/1/3
f 219/1/3 217/1/3 218/1/3
f 220/1/3 217/1/3 219/1/3
f 221/1/3 219/1/3 218/1/3
f 222/6/3 220/6/3 219/6/3
f 222/1/3 219/1/3 221/1/3
f 223/1/3 217/1/3 220/1/3
f 223/6/3 220/6/3 222/6/3
f 224/6/3 222/6/3 221/6/3
f 224/1/3 221/1/3 218/1/3
f 225/1/3 223/1/3 222/1/3
f 225/6/3 222/6/3 224/6/3
f 226/1/3 217/1/3 223/1/3
f 226/1/3 223/1/3 225/1/3
f 227/1/3 225/1/3 224/1/3
f 227/1/3 224/1/3 218/1/3
f 228/6/3 226/6/3 225/6/3
f 228/1/3 225/1/3 227/1/3
f 229/1/3 217/1/3 226/1/3
f 229/6/3 226/6/3 228/6/3
f 230/1/3 228/1/3 227/1/3
f 230/1/3 217/1/3 229/1/3
f 230/1/3 229/1/3 228/1/3
f 231/1/3 217/1/3 230/1/3
f 232/1/3 204/1/3 217/1/3
f 232/1/3 217/1/3 231/1/3
f 233/1/3 230/1/3 227/1/3
f 234/1/3 230/1/3 233/1/3
f 235/7/3 232/7/3 231/7/3
f 236/7/3 232/7/3 235/7/3
f 237/7/3 235/7/3 231/7/3
f 237/5/3 236/5/3 235/5/3
f 238/7/3 232/7/3 236/7/3
f 238/5/3 236/5/3 237/5/3
f 239/4/3 231/4/3 230/4/3
f 239/1/3 230/1/3 234/1/3
f 240/7/3 238/7/3 237/7/3
f 240/4/3 231/4/3 239/4/3
f 240/7/3 237/7/3 231/7/3
f 241/7/3 232/7/3 238/7/3
f 241/7/3 238/7/3 240/7/3
f 241/1/3 204/1/3 232/1/3
f 242/1/3 233/1/3 227/1/3
f 243/1/3 233/1/3 242/1/3
f 244/1/3 233/1/3 243/1/3
f 245/2/3 234/2/3 233/2/3
f 245/1/3 233/1/3 244/1/3
f 246/1/3 240/1/3 239/1/3
f 246/2/3 234/2/3 245/2/3
f 246/1/3 239/1/3 234/1/3
f 246/1/3 241/1/3 240/1/3
f 247/1/3 204/1/3 241/1/3
f 247/1/3 241/1/3 246/1/3
f 248/1/3 204/1/3 247/1/3
f 249/1/3 245/1/3 244/1/3
f 249/1/3 247/1/3 246/1/3
f 249/1/3 246/1/3 245/1/3
f 250/1/3 247/1/3 249/1/3
f 253/1/3 252/1/3 251/1/3
f 254/1/3 252/1/3 253/1/3
f 257/1/3 256/1/3 255/1/3
f 258/1/3 256/1/3 257/1/3
f 261/1/3 260/1/3 259/1/3
f 262/1/3 260/1/3 261/1/3
f 265/1/3 264/1/3 263/1/3
f 266/1/3 264/1/3 265/1/3
f 269/1/3 268/1/3 267/1/3
f 270/1/3 268/1/3 269/1/3
f 273/1/3 272/1/3 271/1/3
f 274/1/3 272/1/3 273/1/3
f 277/1/3 276/1/3 275/1/3
f 278/1/3 276/1/3 277/1/3
f 279/3/4 280/3/4 281/3/4
f 281/3/4 280/3/4 282/3/4
f 283/3/4 284/3/4 285/3/4
f 285/3/4 284/3/4 286/3/4
f 287/1/4 288/1/4 289/1/4
f 289/1/4 288/1/4 290/1/4
f 291/1/4 292/1/4 293/1/4
f 293/1/4 292/1/4 294/1/4
f 295/1/4 296/1/4 297/1/4
f 297/1/4 296/1/4 298/1/4
f 299/1/4 300/1/4 301/1/4
f 301/1/4 300/1/4 302/1/4
f 303/1/4 304/1/4 305/1/4
f 305/1/4 304/1/4 306/1/4
f 307/1/4 308/1/4 309/1/4
f 309/1/4 308/1/4 310/1/4
f 311/1/4 312/1/4 313/1/4
f 313/1/4 312/1/4 314/1/4
f 315/1/4 316/1/4 318/1/4
f 318/1/4 316/1/4 319/1/4
f 317/1/4 318/1/4 321/1/4
f 319/1/4 320/1/4 321/1/4
f 318/1/4 319/1/4 321/1/4
f 321/1/4 320/1/4 322/1/4
f 317/1/4 321/1/4 323/1/4
f 322/1/4 320/1/4 324/1/4
f 317/1/4 323/1/4 325/1/4
f 323/1/4 324/1/4 325/1/4
f 325/1/4 324/1/4 326/1/4
f 324/1/4 320/1/4 327/1/4
f 326/1/4 324/1/4 327/1/4
f 327/1/4 320/1/4 328/1/4
f 326/1/4 327/1/4 329/1/4
f 329/1/4 327/1/4 330/1/4
f 331/1/4 332/1/4 333/1/4
f 333/1/4 332/1/4 334/1/4
f 331/1/4 333/1/4 335/1/4
f 334/1/4 332/1/4 336/1/4
f 331/1/4 335/1/4 337/1/4
f 335/1/4 336/1/4 337/1/4
f 336/1/4 332/1/4 338/1/4
f 337/1/4 336/1/4 338/1/4
f 339/1/4 340/1/4 341/1/4
f 341/1/4 340/1/4 342/1/4
f 339/1/4 341/1/4 343/1/4
f 342/1/4 340/1/4 344/1/4
f 339/1/4 343/1/4 345/1/4
f 343/1/4 344/1/4 345/1/4
f 344/1/4 340/1/4 346/1/4
f 345/1/4 344/1/4 346/1/4
f 347/1/4 348/1/4 349/1/4
f 349/1/4 348/1/4 350/1/4
f 356/3/5 352/3/5 351/3/5
f 357/3/5 352/3/5 356/3/5
f 360/3/5 354/3/5 353/3/5
f 361/3/5 354/3/5 360/3/5
f 364/3/5 358/3/5 357/3/5
f 364/3/5 356/3/5 355/3/5
f 364/3/5 357/3/5 356/3/5
f 365/3/5 358/3/5 364/3/5
f 368/3/5 362/3/5 361/3/5
f 368/3/5 361/3/5 360/3/5
f 368/3/5 360/3/5 359/3/5
f 369/3/5 362/3/5 368/3/5
f 371/3/5 366/3/5 365/3/5
f 371/3/5 365/3/5 364/3/5
f 371/3/5 364/3/5 363/3/5
f 372/3/5 366/3/5 371/3/5
f 373/3/5 370/3/5 369/3/5
f 373/3/5 369/3/5 368/3/5
f 373/3/5 368/3/5 367/3/5
f 374/3/5 370/3/5 373/3/5
f 381/1/5 376/1/5 375/1/5
f 382/1/5 378/1/5 377/1/5
f 383/1/5 378/1/5 382/1/5
f 384/1/5 380/1/5 379/1/5
f 385/1/5 383/1/5 382/1/5
f 385/1/5 384/1/5 383/1/5
f 385/1/5 381/1/5 375/1/5
f 385/1/5 382/1/5 381/1/5
f 386/1/5 380/1/5 384/1/5
f 386/1/5 384/1/5 385/1/5
f 391/1/5 388/1/5 387/1/5
f 392/1/5 388/1/5 391/1/5
f 393/1/5 390/1/5 389/1/5
f 394/1/5 390/1/5 393/1/5
f 397/1/5 396/1/5 395/1/5
f 398/1/5 396/1/5 397/1/5
f 401/1/5 400/1/5 399/1/5
f 402/1/5 400/1/5 401/1/5
f 405/1/5 404/1/5 403/1/5
f 406/1/5 404/1/5 405/1/5
f 409/1/5 408/1/5 407/1/5
f 410/1/5 408/1/5 409/1/5
f 415/1/5 414/1/5 413/1/5
f 416/1/5 414/1/5 415/1/5
f 417/1/5 412/1/5 411/1/5
f 418/1/5 412/1/5 417/1/5
f 421/1/5 420/1/5 419/1/5
f 422/1/5 420/1/5 421/1/5
f 425/1/5 424/1/5 423/1/5
f 426/1/5 424/1/5 425/1/5
f 429/1/5 428/1/5 427/1/5
f 430/1/5 428/1/5 429/1/5
f 431/3/6 432/3/6 436/3/6
f 436/3/6 432/3/6 437/3/6
f 433/3/6 434/3/6 440/3/6
f 440/3/6 434/3/6 441/3/6
f 437/3/6 438/3/6 444/3/6
f 435/3/6 436/3/6 444/3/6
f 436/3/6 437/3/6 444/3/6
f 444/3/6 438/3/6 445/3/6
f 441/3/6 442/3/6 448/3/6
f 440/3/6 441/3/6 448/3/6
f 439/3/6 440/3/6 448/3/6
f 448/3/6 442/3/6 449/3/6
f 445/3/6 446/3/6 451/3/6
f 444/3/6 445/3/6 451/3/6
f 443/3/6 444/3/6 451/3/6
f 451/3/6 446/3/6 452/3/6
f 449/3/6 450/3/6 453/3/6
f 448/3/6 449/3/6 453/3/6
f 447/3/6 448/3/6 453/3/6
f 453/3/6 450/3/6 454/3/6
f 455/1/6 456/1/6 459/1/6
f 459/1/6 456/1/6 460/1/6
f 457/1/6 458/1/6 461/1/6
f 461/1/6 458/1/6 462/1/6
f 463/1/6 464/1/6 465/1/6
f 465/1/6 464/1/6 466/1/6
f 467/1/6 468/1/6 471/1/6
f 471/1/6 468/1/6 472/1/6
f 469/1/6 470/1/6 473/1/6
f 473/1/6 470/1/6 474/1/6
f 475/1/6 476/1/6 477/1/6
f 477/1/6 476/1/6 478/1/6
f 479/1/6 480/1/6 483/1/6
f 483/1/6 480/1/6 484/1/6
f 481/1/6 482/1/6 485/1/6
f 485/1/6 482/1/6 486/1/6
f 487/1/6 488/1/6 489/1/6
f 489/1/6 488/1/6 490/1/6
f 491/1/6 492/1/6 495/1/6
f 495/1/6 492/1/6 496/1/6
f 493/1/6 494/1/6 497/1/6
f 497/1/6 494/1/6 498/1/6
f 499/1/6 500/1/6 501/1/6
f 501/1/6 500/1/6 502/1/6
f 499/1/6 501/1/6 503/1/6
f 502/1/6 500/1/6 504/1/6
f 499/1/6 503/1/6 505/1/6
f 503/1/6 504/1/6 505/1/6
f 504/1/6 500/1/6 506/1/6
f 505/1/6 504/1/6 506/1/6
f 507/1/6 508/1/6 509/1/6
f 509/1/6 508/1/6 510/1/6
